<?xml version="1.0" standalone="no"?>
<!DOCTYPE svg PUBLIC "-//W3C//DTD SVG 20010904//EN"
 "http://www.w3.org/TR/2001/REC-SVG-20010904/DTD/svg10.dtd">
<svg version="1.0" xmlns="http://www.w3.org/2000/svg"
 width="1024.000000pt" height="1024.000000pt" viewBox="0 0 1024.000000 1024.000000"
 preserveAspectRatio="xMidYMid meet">
<metadata>
Created by potrace 1.14, written by Peter Selinger 2001-2017
</metadata>
<g transform="translate(0.000000,1024.000000) scale(0.100000,-0.100000)"
fill="#000000" stroke="none">
<path d="M1855 8380 c-167 -35 -293 -92 -423 -190 -361 -272 -536 -764 -412
-1162 45 -146 146 -265 430 -509 159 -136 186 -163 194 -196 14 -54 -38 -105
-119 -118 -92 -13 -145 22 -265 178 -106 137 -248 173 -367 94 -72 -48 -106
-124 -138 -312 -14 -82 -51 -280 -82 -440 -78 -404 -76 -456 25 -547 59 -53
125 -65 250 -43 53 9 117 14 142 11 25 -3 202 -15 395 -26 192 -12 351 -22
353 -24 1 -2 -48 -32 -110 -67 -233 -129 -520 -330 -621 -434 -164 -167 -339
-397 -407 -533 -49 -98 -128 -332 -166 -497 -27 -113 -29 -133 -28 -335 0
-186 3 -227 22 -308 32 -135 57 -204 118 -327 126 -256 328 -453 602 -591 120
-60 239 -99 402 -132 l135 -27 830 0 830 0 55 22 c95 39 151 119 206 295 l18
58 55 -53 c318 -302 907 -407 1398 -248 157 51 338 146 449 237 25 20 47 35
49 32 3 -2 9 -29 15 -58 24 -126 95 -220 198 -262 l57 -23 1400 -3 c906 -2
1427 1 1477 7 92 12 153 39 203 89 76 76 99 148 184 587 53 273 62 379 38 438
-37 88 -129 147 -230 147 -61 0 -94 -13 -211 -84 l-60 -36 -123 0 c-68 0 -123
3 -123 7 0 4 8 16 19 27 10 12 160 221 333 466 560 792 610 863 726 1025 153
213 162 231 162 317 0 78 -15 121 -56 160 -74 70 -266 112 -623 138 -74 5
-136 12 -138 14 -2 2 12 14 31 26 39 24 94 87 119 136 40 78 33 196 -15 269
-29 44 -31 52 -39 193 -22 395 -120 732 -271 929 l-40 52 25 33 c14 18 41 65
61 105 99 199 137 366 137 611 0 124 -4 162 -26 246 -74 292 -266 496 -561
595 -170 57 -217 61 -764 61 l-497 0 -44 -23 c-59 -31 -83 -82 -114 -237 -49
-247 -297 -1538 -322 -1675 -14 -77 -29 -143 -32 -147 -4 -4 -21 70 -39 165
-18 94 -64 334 -103 532 -219 1123 -230 1178 -258 1239 -28 62 -82 119 -128
137 -13 5 -185 9 -383 9 -420 0 -432 -2 -516 -85 -73 -73 -98 -141 -96 -266
l1 -96 -72 -119 c-40 -66 -101 -168 -137 -227 -36 -58 -69 -107 -74 -107 -4 0
-6 7 -2 15 3 8 22 113 43 232 48 282 51 392 11 474 -37 74 -99 134 -165 159
-53 20 -78 20 -1381 19 -1262 0 -1331 -1 -1417 -19z m759 -227 c-2 -10 -33
-171 -69 -358 -36 -187 -68 -350 -70 -363 -5 -22 -10 -19 -83 43 -93 81 -129
100 -213 115 -121 22 -214 -5 -253 -74 -58 -101 -44 -151 73 -266 47 -47 139
-128 204 -180 312 -247 406 -496 327 -860 -99 -459 -448 -769 -936 -831 -112
-14 -297 -7 -394 15 -93 22 -215 20 -282 -3 l-56 -19 8 31 c5 18 44 213 86
435 43 221 80 402 84 402 3 0 22 -25 44 -54 65 -92 178 -204 228 -226 156 -69
365 -35 478 79 69 70 105 169 105 287 l0 92 -48 70 c-49 72 -98 119 -272 259
-266 214 -365 394 -335 611 31 225 103 373 258 530 78 79 166 142 266 187 105
49 177 65 311 71 99 5 137 2 219 -15 109 -23 225 -27 259 -10 12 7 30 20 40
30 22 24 26 24 21 2z m5571 -32 c201 -53 355 -165 427 -311 57 -115 71 -190
65 -355 -5 -169 -34 -293 -100 -430 -72 -148 -167 -237 -287 -269 l-55 -14 30
-11 c17 -7 35 -17 40 -24 6 -7 43 -28 84 -47 222 -105 349 -423 370 -927 8
-197 15 -227 64 -280 l20 -23 -427 0 -427 0 21 30 c45 63 80 215 80 342 0 92
-25 192 -69 283 -71 148 -170 243 -344 330 -55 28 -105 58 -110 67 -8 12 -1
80 27 251 l38 235 67 17 c113 29 149 45 201 92 83 74 137 208 127 310 -11 103
-70 168 -191 209 -72 25 -81 45 -70 162 14 164 11 196 -30 262 -20 32 -36 69
-36 82 0 22 6 26 58 36 91 17 332 7 427 -17z m-3575 -22 c0 -17 -122 -643
-126 -648 -2 -2 -20 12 -39 32 -49 50 -87 58 -281 55 l-168 -3 -182 -940
c-197 -1013 -205 -1066 -164 -1132 l20 -33 -391 0 -390 0 40 38 c31 30 44 54
65 122 14 47 105 492 201 990 96 498 178 918 181 933 l6 29 -193 -4 c-208 -4
-218 -6 -296 -66 -18 -13 -33 -21 -33 -17 0 4 28 149 61 321 l61 314 787 0
c490 0 792 4 801 10 20 13 40 12 40 -1z m1032 -7 c176 -2 285 1 297 7 16 9 20
7 24 -12 3 -12 112 -578 242 -1257 129 -679 243 -1255 252 -1280 9 -25 27 -62
40 -82 l23 -38 -422 0 -422 0 27 28 c36 38 57 93 57 151 0 43 -22 186 -36 234
-5 16 -36 17 -469 17 l-463 0 -62 -105 c-91 -157 -109 -228 -75 -295 l16 -30
-423 0 c-334 1 -420 3 -407 13 8 7 26 21 40 32 13 11 49 63 78 115 30 52 94
160 141 240 48 80 154 258 235 395 82 138 203 342 270 455 67 113 160 268 205
345 46 77 116 194 155 260 127 212 311 528 348 598 45 85 54 140 33 191 -15
36 -15 38 2 30 9 -5 142 -10 294 -12z m1903 -21 c88 -39 132 -100 142 -195 5
-52 -51 -389 -258 -1546 -146 -811 -150 -838 -148 -920 2 -42 0 -81 -5 -88 -4
-6 -25 -12 -47 -12 -38 0 -439 44 -506 55 -48 9 -57 34 -33 95 50 127 100 394
430 2284 17 99 38 193 47 209 25 49 99 107 172 134 49 18 146 11 206 -16z
m-668 -3165 c158 -30 304 -56 323 -58 32 -3 35 -6 38 -36 4 -38 -12 -62 -39
-62 -20 0 -20 -1 -43 -115 -16 -75 -36 -100 -74 -90 -12 3 -41 8 -65 11 l-43
6 -28 -148 c-15 -82 -29 -158 -32 -169 -5 -27 36 -56 85 -60 22 -1 44 -6 50
-9 18 -11 13 -61 -8 -80 -18 -17 -32 -15 -298 35 -153 28 -288 58 -300 66 -25
15 -31 57 -11 69 7 5 42 7 79 7 36 -1 70 2 76 5 5 4 22 75 37 157 15 83 30
159 33 171 4 18 -3 22 -57 32 -98 18 -102 26 -76 159 11 61 11 73 -1 77 -17 7
-32 44 -26 66 8 29 84 22 380 -34z m-4047 -64 c268 -70 482 -197 620 -369 234
-291 300 -678 186 -1094 -50 -186 -136 -360 -257 -522 -75 -101 -199 -236
-283 -306 l-38 -32 44 -67 c25 -37 102 -129 172 -204 l127 -138 -461 0 -460 0
20 20 c21 21 25 37 12 58 -7 10 -28 6 -100 -17 -157 -52 -247 -65 -452 -65
-199 -1 -289 12 -435 59 -313 102 -568 331 -686 614 -77 185 -108 433 -80 633
38 265 128 486 284 693 237 316 529 538 882 670 218 81 366 106 610 101 160
-4 193 -7 295 -34z m1750 -17 c173 1 335 5 360 9 l45 9 -27 -25 c-30 -29 -71
-104 -87 -163 -6 -22 -81 -402 -167 -845 -166 -857 -170 -882 -130 -959 31
-59 107 -128 156 -141 118 -32 267 14 352 109 77 86 85 117 255 984 170 869
181 948 139 1011 l-18 29 28 -9 c37 -11 644 -11 702 0 l44 9 -25 -25 c-34 -34
-72 -112 -91 -184 -8 -32 -85 -423 -171 -869 -87 -445 -168 -848 -181 -894
-82 -281 -269 -510 -524 -640 -183 -94 -390 -138 -600 -128 -394 19 -633 186
-712 501 -17 68 -20 100 -15 211 5 115 24 225 167 955 94 482 164 860 167 910
4 72 2 91 -16 123 l-20 39 27 -9 c15 -4 169 -8 342 -8z m4892 -12 c-618 -860
-1479 -2079 -1469 -2081 6 -2 21 -8 33 -14 14 -6 161 -9 415 -6 384 3 395 4
436 25 23 13 58 43 79 69 21 25 40 42 41 37 4 -11 -123 -672 -129 -679 -3 -2
-460 -3 -1017 -2 l-1012 3 34 35 c19 19 77 96 129 170 52 74 137 196 189 270
53 74 117 167 144 205 27 39 153 219 280 400 642 915 695 993 695 1021 0 3
-143 4 -317 2 -358 -3 -338 0 -432 -84 -36 -32 -52 -42 -48 -29 6 20 79 388
113 568 l18 97 875 1 c482 0 885 4 896 9 11 5 30 9 43 9 l23 1 -19 -27z
m-2931 -738 c238 -47 408 -78 438 -79 24 -1 36 -7 42 -22 12 -33 -11 -68 -47
-72 -18 -2 -128 15 -245 38 -330 62 -318 59 -334 84 -26 39 -8 59 56 65 9 0
50 -6 90 -14z m139 -220 c129 -25 249 -45 267 -45 27 0 34 -5 39 -27 7 -28 -2
-50 -28 -67 -12 -7 -87 3 -270 38 -328 62 -326 61 -334 91 -17 69 12 70 326
10z m-115 -175 c176 -33 332 -60 347 -60 16 0 31 -7 36 -17 7 -12 -20 -173
-84 -508 l-94 -490 23 -18 c12 -9 30 -15 40 -13 36 9 37 -26 5 -193 -18 -96
-37 -168 -46 -177 -11 -12 -26 -14 -59 -9 -35 5 -43 3 -43 -9 0 -8 -5 -38 -11
-66 -8 -37 -17 -54 -32 -61 -16 -7 -99 5 -306 45 -299 57 -318 64 -307 111 2
11 8 41 11 68 7 45 6 47 -17 47 -13 0 -34 7 -46 16 -28 20 -28 43 6 214 l27
135 52 10 c28 5 55 13 58 17 4 4 24 96 44 205 26 136 34 200 27 204 -6 4 -35
10 -64 14 -59 8 -82 25 -82 60 0 23 85 481 96 517 3 10 18 18 37 20 39 4 -1
10 382 -62z"/>
<path d="M5311 6845 c-123 -245 -222 -447 -220 -448 32 -22 81 -27 284 -27
210 0 275 7 275 30 0 4 -22 200 -50 436 -27 236 -50 435 -50 441 0 7 -3 13 -7
13 -5 0 -109 -201 -232 -445z"/>
<path d="M6650 4821 c0 -10 -3 -31 -6 -47 -8 -42 25 -57 184 -88 202 -40 212
-38 225 46 l5 36 -187 36 c-218 42 -221 42 -221 17z"/>
<path d="M6765 4579 c-3 -13 -18 -90 -33 -170 l-28 -145 22 -17 c26 -20 60
-22 70 -6 8 14 63 295 64 327 0 12 -6 22 -14 22 -7 0 -27 3 -44 6 -27 5 -32 3
-37 -17z"/>
<path d="M2245 4280 c-311 -41 -600 -253 -745 -545 -72 -144 -93 -232 -93
-385 0 -108 3 -136 26 -205 35 -106 84 -185 165 -268 116 -118 267 -176 455
-177 72 0 93 4 112 19 l24 18 -57 94 c-32 52 -103 159 -158 239 -134 193 -158
229 -151 236 3 3 22 0 44 -6 42 -13 776 -8 848 5 l40 7 -29 -22 c-63 -51 -66
-113 -9 -227 28 -57 37 -61 70 -38 55 39 171 244 211 376 124 403 -62 779
-428 863 -85 20 -237 27 -325 16z"/>
<path d="M6241 3578 c-40 -193 -58 -304 -51 -311 4 -5 16 -7 26 -5 15 3 24 32
51 173 18 94 30 176 28 183 -2 6 -13 12 -24 12 -16 0 -22 -11 -30 -52z"/>
<path d="M6417 3577 c-3 -12 -42 -213 -87 -447 -77 -405 -80 -425 -63 -442 20
-19 159 -51 206 -46 l32 3 82 435 c45 239 81 444 80 454 -2 16 -18 22 -97 37
-52 10 -107 20 -122 23 -21 4 -27 1 -31 -17z"/>
<path d="M6120 2597 c0 -3 -7 -40 -15 -83 -8 -43 -14 -78 -12 -79 1 -1 13 -9
27 -18 33 -23 96 -22 108 1 8 14 32 132 32 154 0 3 -21 9 -47 13 -27 3 -58 9
-70 12 -13 3 -23 3 -23 0z"/>
<path d="M6356 2533 c-2 -10 -10 -44 -16 -76 -14 -68 -7 -81 50 -98 60 -18 75
-4 89 86 7 42 10 79 8 82 -7 7 -78 22 -104 23 -12 0 -24 -8 -27 -17z"/>
<path d="M6596 2499 c-8 -25 -26 -120 -26 -138 0 -25 57 -53 100 -49 33 3 35
5 47 63 21 104 19 111 -29 119 -24 4 -53 9 -65 13 -14 3 -24 0 -27 -8z"/>
<path d="M6170 2292 c0 -6 -3 -17 -6 -26 -4 -9 -1 -16 6 -16 7 0 18 -6 24 -14
13 -18 321 -78 354 -70 16 5 22 14 22 33 l0 27 -172 33 c-95 18 -185 35 -200
38 -16 3 -28 1 -28 -5z"/>
</g>
</svg>
